<svg xmlns="http://www.w3.org/2000/svg" version="1.1" width="300" height="200">
<defs><marker id="arrow" markerWidth="6" markerHeight="6" refX="6" refY="3" orient="auto" markerUnits="strokeWidth"><path d="M0,0 L0,6 L9,3 z" fill="black"></path></marker></defs><circle cx="90" cy="50" r="12" stroke="black" fill="none"></circle><text x="90" y="50" font-size="12" text-anchor="middle"><tspan>u<tspan baseline-shift="sub">1</tspan></tspan></text><circle cx="60" cy="100" r="12" stroke="black" fill="none"></circle><text x="60" y="100" font-size="12" text-anchor="middle"><tspan>x<tspan baseline-shift="sub">1</tspan></tspan></text><circle cx="60" cy="150" r="12" stroke="black" fill="none"></circle><text x="60" y="150" font-size="12" text-anchor="middle"><tspan>y<tspan baseline-shift="sub">1</tspan></tspan></text><line y1="112" y2="138" x1="60" x2="60" stroke="black" marker-end="url(#arrow)"></line><line y1="100" y2="100" x1="72" x2="108" stroke="black" marker-end="url(#arrow)"></line><path d="M 90 62 C 90 72, 102 150, 72 150" stroke="black" fill="transparent" marker-end="url(#arrow)"></path><circle cx="150" cy="50" r="12" stroke="black" fill="none"></circle><text x="150" y="50" font-size="12" text-anchor="middle"><tspan>u<tspan baseline-shift="sub">2</tspan></tspan></text><circle cx="120" cy="100" r="12" stroke="black" fill="none"></circle><text x="120" y="100" font-size="12" text-anchor="middle"><tspan>x<tspan baseline-shift="sub">2</tspan></tspan></text><circle cx="120" cy="150" r="12" stroke="black" fill="none"></circle><text x="120" y="150" font-size="12" text-anchor="middle"><tspan>y<tspan baseline-shift="sub">2</tspan></tspan></text><line y1="112" y2="138" x1="120" x2="120" stroke="black" marker-end="url(#arrow)"></line><line y1="100" y2="100" x1="132" x2="168" stroke="black" marker-end="url(#arrow)"></line><path d="M 150 62 C 150 72, 162 150, 132 150" stroke="black" fill="transparent" marker-end="url(#arrow)"></path><text x="180" y="100" font-size="24" text-anchor="middle"><tspan>...</tspan></text><line y1="100" y2="100" x1="192" x2="228" stroke="black" marker-end="url(#arrow)"></line><circle cx="270" cy="50" r="12" stroke="black" fill="none"></circle><text x="270" y="50" font-size="12" text-anchor="middle"><tspan>u<tspan baseline-shift="sub">T</tspan></tspan></text><circle cx="240" cy="100" r="12" stroke="black" fill="none"></circle><text x="240" y="100" font-size="12" text-anchor="middle"><tspan>x<tspan baseline-shift="sub">T</tspan></tspan></text><circle cx="240" cy="150" r="12" stroke="black" fill="none"></circle><text x="240" y="150" font-size="12" text-anchor="middle"><tspan>y<tspan baseline-shift="sub">T</tspan></tspan></text><line y1="112" y2="138" x1="240" x2="240" stroke="black" marker-end="url(#arrow)"></line><path d="M 270 62 C 270 72, 282 150, 252 150" stroke="black" fill="transparent" marker-end="url(#arrow)"></path>
</svg>
